<svg xmlns="http://www.w3.org/2000/svg" viewBox="0 0 64 64" enable-background="new 0 0 64 64"><circle fill="#fff" cx="32" cy="32" r="31.6"/><path d="M32 64c-17.6 0-32-14.4-32-32s14.4-32 32-32 32 14.4 32 32-14.4 32-32 32zm0-63.3c-17.3 0-31.3 14-31.3 31.3s14 31.3 31.3 31.3 31.3-14 31.3-31.3-14-31.3-31.3-31.3zM32 1.8c-16.7 0-30.2 13.5-30.2 30.2s13.5 30.2 30.2 30.2 30.2-13.5 30.2-30.2-13.5-30.2-30.2-30.2zm3 40.6h-1.3v-12.3c0-1.1-.2-2.1-.5-2.7-.4-.7-.8-1.2-1.2-1.5-.5-.3-1-.6-1.4-.6-.5-.1-.8-.1-1.1-.1-.8 0-1.6.1-2.3.4-.7.3-1.3.7-1.8 1.3-.5.6-.9 1.3-1.2 2.1-.3.8-.4 1.8-.4 2.9v10.7h-1.3v-12.5c0-1.1-.2-2-.5-2.7-.3-.7-.7-1.2-1.2-1.5-.5-.3-.9-.5-1.4-.6-.5-.1-.9-.1-1.1-.1-.6 0-1.3.1-2 .4-.7.3-1.3.7-1.9 1.2-.6.5-1 1.2-1.4 2.1-.4.8-.5 1.8-.5 3v10.7h-1.5v-18.2h1.3v3.7h.1c.1-.6.4-1.1.7-1.6.4-.5.8-.9 1.3-1.3s1.1-.7 1.7-.9c.6-.2 1.3-.3 2-.3.9 0 1.6.1 2.3.3.6.2 1.2.5 1.6.9.4.4.8.8 1.1 1.2.3.5.4.9.5 1.4h.1c.5-1.3 1.3-2.2 2.2-2.9.9-.6 2.1-1 3.6-1 .8 0 1.6.1 2.3.4.7.2 1.3.6 1.8 1.1.5.5.9 1.1 1.2 1.9.3.8.4 1.7.4 2.7v12.4zm18.2 0h-1.3v-11.4c0-.4 0-1-.1-1.7s-.3-1.3-.6-2c-.3-.6-.9-1.2-1.5-1.6-.7-.4-1.6-.7-2.9-.7-1 0-1.9.2-2.7.6-.8.4-1.5.9-2 1.6-.6.7-1 1.5-1.3 2.4-.3.9-.4 1.9-.4 3v9.8h-1.3v-25.1h1.3v10.9h.1c.2-.7.6-1.3 1-1.8s.9-1 1.5-1.4c.6-.4 1.2-.7 1.9-.8.7-.2 1.4-.3 2.1-.3 1.1 0 2 .1 2.7.4.7.3 1.3.6 1.8 1s.8.9 1.1 1.4c.3.5.5 1.1.6 1.6.1.5.2 1.1.2 1.6v12.5z"/></svg>